<svg xmlns="http://www.w3.org/2000/svg" width="108" height="108" viewBox="0 0 108 108">
  <g transform="translate(20.057142, 20.37143) scale(0.7087745)">
  <path d="m28.56,57.594a22.542,22.542 0,0 1,4.775 -28.811,22.542 22.542,0 0,1 29.204,0.079 22.542,22.542 0,0 1,4.618 28.837" fill="none" stroke="#7ada9d" stroke-width="6.61447" stroke-linecap="round"/>
  <path d="M41.407,40.614m-2.249,0a2.249,2.249 0,1 1,4.498 0a2.249,2.249 0,1 1,-4.498 0" fill="#7ada9d"/>
  <path d="M55.166,40.614m-2.249,0a2.249,2.249 0,1 1,4.498 0a2.249,2.249 0,1 1,-4.498 0" fill="#7ada9d"/>
  <path d="M69.466,23.098L69.903,23.535A1.411,1.411 90,0 1,69.903 25.531L65.35,30.083A1.411,1.411 0,0 1,63.355 30.083L62.918,29.647A1.411,1.411 0,0 1,62.918 27.651L67.47,23.098A1.411,1.411 0,0 1,69.466 23.098z" fill="#7ada9d"/>
  <path d="M25.784,23.098L25.347,23.535A1.411,1.411 0,0 0,25.347 25.531L29.9,30.083A1.411,1.411 0,0 0,31.896 30.083L32.332,29.647A1.411,1.411 0,0 0,32.332 27.651L27.78,23.098A1.411,1.411 0,0 0,25.784 23.098z" fill="#7ada9d"/>
  <g transform="translate(30.5,52.6) scale(1.45)"><path d="M13.446 2.6l7.955 7.954a2.045 2.045 0 0 1 0 2.892l-7.955 7.955a2.045 2.045 0 0 1 -2.892 0l-7.955 -7.955a2.045 2.045 0 0 1 0 -2.892l7.955 -7.955a2.045 2.045 0 0 1 2.892 0" fill="none" stroke="#ffb780" stroke-width="4.276" stroke-linejoin="round"/><g transform="translate(12,12) scale(1.12) translate(-12,-12)"><g fill="none" stroke="#7ada9d" stroke-width="2.217" stroke-linecap="round" stroke-linejoin="round"><path d="M12 15v-6"/><path d="M15 11l-2 -2"/><path d="M11 7l-1.9 -1.9"/></g><g fill="#7ada9d"><circle cx="16" cy="12" r="1.047"/><circle cx="12" cy="8" r="1.047"/><circle cx="12" cy="16" r="1.047"/></g></g></g>
  </g>
</svg>
